<?xml version="1.0" encoding="UTF-8" standalone="no"?>
<svg width="800" height="480" xmlns="http://www.w3.org/2000/svg">
  <!-- Background and Title -->
  <rect width="800" height="480" fill="#f8f9fa" rx="10" ry="10"/>
  <text x="400" y="40" font-family="Arial" font-size="24" text-anchor="middle" font-weight="bold" fill="#333">Natural Language to SQL Architecture</text>
  
  <!-- Input Layer -->
  <rect x="50" y="80" width="700" height="60" fill="#e3f2fd" stroke="#2196f3" stroke-width="2" rx="8" ry="8"/>
  <text x="400" y="115" font-family="Arial" font-size="16" text-anchor="middle" fill="#333">Natural Language Query: "Show all flights from New York to Boston on January 1st"</text>
  
  <!-- Database Schema -->
  <rect x="50" y="160" width="700" height="60" fill="#f3e5f5" stroke="#9c27b0" stroke-width="2" rx="8" ry="8"/>
  <text x="400" y="185" font-family="Arial" font-size="16" text-anchor="middle" font-weight="bold" fill="#333">Database Schema Context</text>
  <text x="400" y="205" font-family="Arial" font-size="14" text-anchor="middle" fill="#333">Tables: flights, airports, airlines | Relations: departure, arrival, dates</text>
  
  <!-- Model Layer - Split into two paths -->
  <line x1="400" y1="220" x2="400" y2="240" stroke="#333" stroke-width="2"/>
  <line x1="400" y1="240" x2="200" y2="240" stroke="#333" stroke-width="2"/>
  <line x1="400" y1="240" x2="600" y2="240" stroke="#333" stroke-width="2"/>
  <line x1="200" y1="240" x2="200" y2="260" stroke="#333" stroke-width="2"/>
  <line x1="600" y1="240" x2="600" y2="260" stroke="#333" stroke-width="2"/>
  
  <!-- Fine-tuning Path -->
  <rect x="50" y="260" width="300" height="120" fill="#fff3e0" stroke="#ff9800" stroke-width="2" rx="8" ry="8"/>
  <text x="200" y="290" font-family="Arial" font-size="16" text-anchor="middle" font-weight="bold" fill="#333">T5 Fine-tuning Approach</text>
  <rect x="75" y="300" width="250" height="30" fill="#ffe0b2" stroke="#ff9800" stroke-width="1" rx="4" ry="4"/>
  <text x="200" y="320" font-family="Arial" font-size="14" text-anchor="middle" fill="#333">Encoder-Decoder Architecture</text>
  <rect x="75" y="340" width="250" height="30" fill="#ffe0b2" stroke="#ff9800" stroke-width="1" rx="4" ry="4"/>
  <text x="200" y="360" font-family="Arial" font-size="14" text-anchor="middle" fill="#333">Training with Teacher Forcing</text>
  
  <!-- In-context Learning Path -->
  <rect x="450" y="260" width="300" height="120" fill="#e8eaf6" stroke="#3f51b5" stroke-width="2" rx="8" ry="8"/>
  <text x="600" y="290" font-family="Arial" font-size="16" text-anchor="middle" font-weight="bold" fill="#333">In-context Learning (Gemma)</text>
  <rect x="475" y="300" width="250" height="30" fill="#c5cae9" stroke="#3f51b5" stroke-width="1" rx="4" ry="4"/>
  <text x="600" y="320" font-family="Arial" font-size="14" text-anchor="middle" fill="#333">Zero/One/Few-shot Learning</text>
  <rect x="475" y="340" width="250" height="30" fill="#c5cae9" stroke="#3f51b5" stroke-width="1" rx="4" ry="4"/>
  <text x="600" y="360" font-family="Arial" font-size="14" text-anchor="middle" fill="#333">Prompt Engineering Strategies</text>
  
  <!-- Output Lines -->
  <line x1="200" y1="380" x2="200" y2="400" stroke="#333" stroke-width="2"/>
  <line x1="600" y1="380" x2="600" y2="400" stroke="#333" stroke-width="2"/>
  <line x1="200" y1="400" x2="400" y2="400" stroke="#333" stroke-width="2"/>
  <line x1="600" y1="400" x2="400" y2="400" stroke="#333" stroke-width="2"/>
  <line x1="400" y1="400" x2="400" y2="420" stroke="#333" stroke-width="2"/>
  
  <!-- Output Layer -->
  <rect x="150" y="420" width="500" height="60" fill="#e0f2f1" stroke="#009688" stroke-width="2" rx="8" ry="8"/>
  <text x="400" y="445" font-family="Arial" font-size="18" text-anchor="middle" font-weight="bold" fill="#333">Generated SQL Query</text>
  <text x="400" y="465" font-family="Arial" font-size="14" text-anchor="middle" font-style="italic" fill="#333">SELECT * FROM flights WHERE origin = 'NYC' AND dest = 'BOS' AND date = '2023-01-01'</text>
  
  <!-- Performance Metrics -->
  <text x="110" y="395" font-family="Arial" font-size="12" text-anchor="middle" fill="#555">SQL EM: ~45-50%</text>
  <text x="290" y="395" font-family="Arial" font-size="12" text-anchor="middle" fill="#555">Record F1: ~75-80%</text>
  <text x="510" y="395" font-family="Arial" font-size="12" text-anchor="middle" fill="#555">SQL EM: ~40-45%</text>
  <text x="690" y="395" font-family="Arial" font-size="12" text-anchor="middle" fill="#555">Record F1: ~70-75%</text>
</svg> 